<svg width="2000" height="1065" viewBox="0 0 2000 1065" fill="none" xmlns="http://www.w3.org/2000/svg">
<g clip-path="url(#clip0_1_2)">
<g clip-path="url(#clip1_1_2)">
<g clip-path="url(#clip2_1_2)">
<g clip-path="url(#clip3_1_2)">
<g clip-path="url(#clip4_1_2)">
<g clip-path="url(#clip5_1_2)">
<g clip-path="url(#clip6_1_2)">
<path fill-rule="evenodd" clip-rule="evenodd" d="M930.956 253.526C926.917 278.55 932.101 305.016 953.494 319.547C931.695 222.279 983.697 183.633 1031.86 157.06C975.757 236.967 1090.44 239.04 1096.96 330.875C1102.53 409.166 1048.71 470.215 986.759 496.854C987.473 417.713 908.572 406.937 900.639 342.202C897.532 316.881 911.945 270.669 930.956 253.526Z" fill="#21232B"/>
</g>
</g>
</g>
</g>
<mask id="mask0_1_2" style="mask-type:luminance" maskUnits="userSpaceOnUse" x="0" y="0" width="1997" height="1063">
<g clip-path="url(#clip7_1_2)">
<g clip-path="url(#clip8_1_2)">
<g clip-path="url(#clip9_1_2)">
<g clip-path="url(#clip10_1_2)">
<g clip-path="url(#clip11_1_2)">
<g clip-path="url(#clip12_1_2)">
<path d="M0.692017 920.337C0.692017 903.745 3.57639 887.46 9.34514 871.481C15.0628 855.553 23.4862 841.004 34.6153 827.833C45.6934 814.713 59.2729 804.247 75.3539 796.436C91.435 788.677 109.686 784.797 130.106 784.797C154.355 784.797 175.158 790.361 192.516 801.49C209.873 812.569 222.763 826.786 231.187 844.144L204.002 861.756C198.642 850.27 191.827 841.132 183.556 834.342C175.235 827.603 166.301 822.83 156.755 820.022C147.157 817.214 137.764 815.81 128.574 815.81C113.514 815.81 100.19 818.873 88.6016 824.999C76.962 831.126 67.1858 839.294 59.2729 849.504C51.36 859.714 45.4381 871.124 41.5072 883.733C37.5252 896.394 35.5342 909.106 35.5342 921.868C35.5342 935.907 37.9081 949.436 42.6558 962.454C47.3525 975.472 53.9126 986.958 62.336 996.913C70.7594 1006.87 80.7143 1014.78 92.2007 1020.65C103.687 1026.52 116.195 1029.46 129.723 1029.46C139.168 1029.46 148.867 1027.8 158.822 1024.48C168.777 1021.16 178.094 1015.98 186.772 1008.94C195.451 1001.94 202.343 992.829 207.448 981.598L236.164 997.296C230.549 1010.82 221.87 1022.31 210.128 1031.76C198.387 1041.2 185.318 1048.35 170.921 1053.2C156.474 1058.05 142.231 1060.47 128.192 1060.47C109.558 1060.47 92.456 1056.44 76.8855 1048.37C61.3149 1040.36 47.863 1029.64 36.5297 1016.21C25.1454 1002.84 16.3391 987.775 10.1109 971.03C3.83165 954.337 0.692017 937.439 0.692017 920.337ZM361.367 1062C346.306 1062 332.65 1059.25 320.398 1053.73C308.146 1048.27 297.553 1040.74 288.619 1031.14C279.685 1021.6 272.793 1010.57 267.943 998.062C263.094 985.554 260.669 972.409 260.669 958.625C260.669 944.586 263.094 931.313 267.943 918.805C272.793 906.298 279.685 895.245 288.619 885.648C297.553 876.101 308.197 868.571 320.551 863.058C332.957 857.595 346.689 854.864 361.749 854.864C376.554 854.864 390.083 857.595 402.335 863.058C414.587 868.571 425.231 876.101 434.267 885.648C443.354 895.245 450.323 906.298 455.173 918.805C460.022 931.313 462.447 944.586 462.447 958.625C462.447 972.409 460.022 985.554 455.173 998.062C450.323 1010.57 443.431 1021.6 434.497 1031.14C425.563 1040.74 414.893 1048.27 402.488 1053.73C390.134 1059.25 376.427 1062 361.367 1062ZM295.128 959.008C295.128 972.792 298.114 985.299 304.087 996.53C310.111 1007.76 318.101 1016.62 328.056 1023.1C338.011 1029.64 349.114 1032.9 361.367 1032.9C373.619 1032.9 384.773 1029.59 394.83 1022.95C404.938 1016.31 412.979 1007.3 418.952 995.918C424.976 984.584 427.988 972.026 427.988 958.242C427.988 944.459 424.976 931.951 418.952 920.72C412.979 909.489 404.938 900.555 394.83 893.918C384.773 887.282 373.619 883.963 361.367 883.963C349.114 883.963 338.011 887.333 328.056 894.071C318.101 900.861 310.111 909.872 304.087 921.103C298.114 932.334 295.128 944.969 295.128 959.008ZM676.861 938.715V1058.17H643.167V946.373C643.167 925.187 639.9 909.667 633.366 899.815C626.882 890.013 617.004 885.112 603.731 885.112C594.541 885.112 585.403 887.409 576.316 892.004C567.28 896.598 559.24 902.775 552.195 910.535C545.201 918.346 540.172 927.356 537.109 937.567V1058.17H503.416V858.31H534.046V901.193C539.406 891.748 546.298 883.58 554.722 876.688C563.145 869.797 572.717 864.436 583.438 860.607C594.159 856.779 605.39 854.864 617.131 854.864C628.618 854.864 638.241 856.957 646.001 861.143C653.812 865.381 659.938 871.252 664.379 878.756C668.872 886.312 672.062 895.194 673.951 905.405C675.891 915.615 676.861 926.718 676.861 938.715ZM819.216 1058.17H782.46L703.969 858.31H739.194L801.987 1026.01L864.779 858.31H897.707L819.216 1058.17ZM1012.95 1062C997.895 1062 984.187 1059.25 971.833 1053.73C959.428 1048.27 948.707 1040.74 939.671 1031.14C930.584 1021.6 923.564 1010.57 918.612 998.062C913.609 985.554 911.108 972.281 911.108 958.242C911.108 939.353 915.447 922.124 924.126 906.553C932.805 890.983 944.878 878.475 960.347 869.031C975.764 859.586 993.428 854.864 1013.34 854.864C1033.5 854.864 1051.06 859.637 1066.02 869.184C1080.93 878.782 1092.54 891.289 1100.86 906.706C1109.13 922.175 1113.27 938.843 1113.27 956.711C1113.27 959.263 1113.22 961.739 1113.12 964.139C1112.96 966.589 1112.76 968.452 1112.5 969.729H946.716C947.737 982.747 951.387 994.284 957.666 1004.34C963.895 1014.45 971.986 1022.36 981.941 1028.08C991.896 1033.85 1002.62 1036.73 1014.1 1036.73C1026.36 1036.73 1037.92 1033.67 1048.79 1027.54C1059.62 1021.42 1067.07 1013.38 1071.15 1003.42L1100.25 1011.46C1095.91 1021.16 1089.48 1029.84 1080.95 1037.5C1072.38 1045.16 1062.3 1051.15 1050.71 1055.49C1039.07 1059.83 1026.48 1062 1012.95 1062ZM945.567 946.373H1081.87C1080.85 933.355 1077.15 921.868 1070.77 911.914C1064.39 901.959 1056.22 894.173 1046.27 888.558C1036.31 882.942 1025.33 880.134 1013.34 880.134C1001.6 880.134 990.747 882.942 980.792 888.558C970.838 894.173 962.746 901.959 956.518 911.914C950.238 921.868 946.588 933.355 945.567 946.373ZM1256.47 857.161V887.792C1239.62 888.047 1224.74 892.31 1211.82 900.58C1198.96 908.902 1189.85 920.337 1184.49 934.886V1058.17H1150.79V858.31H1182.19V904.639C1189.08 890.855 1198.19 879.675 1209.53 871.098C1220.91 862.573 1232.86 857.8 1245.36 856.779C1247.92 856.779 1250.09 856.779 1251.87 856.779C1253.66 856.779 1255.19 856.906 1256.47 857.161ZM1358.31 1062C1341.72 1062 1326.15 1059.25 1311.6 1053.73C1297.05 1048.27 1284.55 1040.05 1274.08 1029.08L1287.1 1005.34C1298.58 1016.06 1310.07 1023.72 1321.56 1028.31C1333.04 1032.9 1344.79 1035.2 1356.78 1035.2C1370.57 1035.2 1381.8 1032.57 1390.48 1027.31C1399.15 1022.11 1403.49 1014.4 1403.49 1004.19C1403.49 996.786 1401.25 991.298 1396.76 987.724C1392.31 984.151 1386.01 981.139 1377.84 978.688C1369.67 976.289 1359.97 973.558 1348.74 970.494C1334.96 966.41 1323.34 962.071 1313.9 957.476C1304.46 952.882 1297.31 947.139 1292.46 940.247C1287.61 933.355 1285.18 924.676 1285.18 914.211C1285.18 901.448 1288.5 890.651 1295.14 881.819C1301.77 873.038 1310.89 866.351 1322.48 861.756C1334.12 857.161 1347.34 854.864 1362.14 854.864C1376.95 854.864 1390.35 857.161 1402.35 861.756C1414.34 866.351 1424.68 873.115 1433.36 882.049L1418.04 905.405C1410.13 897.236 1401.45 891.161 1392.01 887.179C1382.56 883.248 1371.97 881.283 1360.23 881.283C1353.34 881.283 1346.57 882.1 1339.94 883.733C1333.3 885.418 1327.81 888.354 1323.47 892.54C1319.13 896.777 1316.96 902.724 1316.96 910.382C1316.96 916.763 1318.67 921.817 1322.09 925.544C1325.56 929.22 1330.67 932.334 1337.41 934.886C1344.2 937.439 1352.44 940.247 1362.14 943.31C1377.2 947.649 1390.27 951.989 1401.35 956.328C1412.48 960.667 1421.11 966.283 1427.23 973.175C1433.36 980.066 1436.42 989.639 1436.42 1001.89C1436.42 1020.78 1429.27 1035.51 1414.98 1046.08C1400.69 1056.69 1381.8 1062 1358.31 1062ZM1564.99 1062C1549.93 1062 1536.23 1059.25 1523.87 1053.73C1511.47 1048.27 1500.75 1040.74 1491.71 1031.14C1482.62 1021.6 1475.6 1010.57 1470.65 998.062C1465.65 985.554 1463.15 972.281 1463.15 958.242C1463.15 939.353 1467.49 922.124 1476.16 906.553C1484.84 890.983 1496.92 878.475 1512.39 869.031C1527.8 859.586 1545.47 854.864 1565.38 854.864C1585.54 854.864 1603.1 859.637 1618.06 869.184C1632.97 878.782 1644.58 891.289 1652.9 906.706C1661.17 922.175 1665.31 938.843 1665.31 956.711C1665.31 959.263 1665.26 961.739 1665.16 964.139C1665 966.589 1664.8 968.452 1664.54 969.729H1498.75C1499.78 982.747 1503.43 994.284 1509.71 1004.34C1515.93 1014.45 1524.02 1022.36 1533.98 1028.08C1543.93 1033.85 1554.66 1036.73 1566.14 1036.73C1578.39 1036.73 1589.96 1033.67 1600.83 1027.54C1611.65 1021.42 1619.11 1013.38 1623.19 1003.42L1652.29 1011.46C1647.95 1021.16 1641.52 1029.84 1632.99 1037.5C1624.42 1045.16 1614.33 1051.15 1602.75 1055.49C1591.11 1059.83 1578.52 1062 1564.99 1062ZM1497.61 946.373H1633.91C1632.89 933.355 1629.19 921.868 1622.81 911.914C1616.43 901.959 1608.26 894.173 1598.3 888.558C1588.35 882.942 1577.37 880.134 1565.38 880.134C1553.63 880.134 1542.79 882.942 1532.83 888.558C1522.88 894.173 1514.78 901.959 1508.56 911.914C1502.28 921.868 1498.63 933.355 1497.61 946.373ZM1674.5 1058.17L1785.92 786.328H1815.02L1926.05 1058.17H1889.29L1857.13 978.535H1743.03L1711.25 1058.17H1674.5ZM1749.93 951.733H1849.47L1800.47 826.148L1749.93 951.733ZM1996.88 1058.17H1962.42V786.328H1996.88V1058.17Z" fill="white"/>
</g>
</g>
</g>
</g>
<g clip-path="url(#clip13_1_2)">
<g clip-path="url(#clip14_1_2)">
<path d="M671.831 326.955C671.831 146.379 818.216 0 998.786 0C1179.36 0 1325.74 146.384 1325.75 326.955C1325.75 507.531 1179.36 653.91 998.786 653.915C818.211 653.915 671.831 507.531 671.831 326.955ZM998.786 628.915C1165.55 628.915 1300.75 493.726 1300.75 326.955C1300.75 160.189 1165.56 24.9947 998.786 24.9997C832.02 24.9997 696.826 160.189 696.831 326.955C696.831 493.721 832.02 628.915 998.786 628.915Z" fill="black"/>
<path d="M998.788 650.644C1177.56 650.644 1322.47 505.724 1322.47 326.957C1322.47 148.189 1177.56 3.26959 998.788 3.26959C820.02 3.26959 675.101 148.189 675.101 326.957C675.101 505.724 820.02 650.644 998.788 650.644Z" fill="black"/>
<g clip-path="url(#clip15_1_2)">
<g clip-path="url(#clip16_1_2)">
<path fill-rule="evenodd" clip-rule="evenodd" d="M930.956 253.526C926.917 278.55 932.101 305.016 953.494 319.547C931.695 222.279 983.697 183.633 1031.86 157.06C975.757 236.967 1090.44 239.04 1096.96 330.875C1102.53 409.166 1048.71 470.215 986.759 496.854C987.473 417.713 908.572 406.937 900.639 342.202C897.532 316.881 911.945 270.669 930.956 253.526Z" fill="black"/>
</g>
</g>
</g>
</g>
</g>
</g>
</mask>
<g mask="url(#mask0_1_2)">
<path d="M1996.96 0H0.615356V1062H1996.96V0Z" fill="url(#paint0_linear_1_2)"/>
</g>
<mask id="mask1_1_2" style="mask-type:luminance" maskUnits="userSpaceOnUse" x="0" y="0" width="1997" height="1063">
<g clip-path="url(#clip17_1_2)">
<g clip-path="url(#clip18_1_2)">
<g clip-path="url(#clip19_1_2)">
<rect width="1996.34" height="277.206" transform="translate(0.615356 784.797)" fill="white"/>
</g>
<g clip-path="url(#clip20_1_2)">
<g clip-path="url(#clip21_1_2)">
<path d="M671.831 326.955C671.831 146.379 818.216 0 998.786 0C1179.36 0 1325.74 146.384 1325.75 326.955C1325.75 507.531 1179.36 653.91 998.786 653.915C818.211 653.915 671.831 507.531 671.831 326.955ZM998.786 628.915C1165.55 628.915 1300.75 493.726 1300.75 326.955C1300.75 160.189 1165.56 24.9947 998.786 24.9997C832.02 24.9997 696.826 160.189 696.831 326.955C696.831 493.721 832.02 628.915 998.786 628.915Z" fill="white"/>
<path d="M998.788 650.644C1177.56 650.644 1322.47 505.724 1322.47 326.957C1322.47 148.189 1177.56 3.26959 998.788 3.26959C820.02 3.26959 675.101 148.189 675.101 326.957C675.101 505.724 820.02 650.644 998.788 650.644Z" fill="white"/>
<g clip-path="url(#clip22_1_2)">
<g clip-path="url(#clip23_1_2)">
<path fill-rule="evenodd" clip-rule="evenodd" d="M930.956 253.526C926.917 278.55 932.101 305.016 953.494 319.547C931.695 222.279 983.697 183.633 1031.86 157.06C975.757 236.967 1090.44 239.04 1096.96 330.875C1102.53 409.166 1048.71 470.215 986.759 496.854C987.473 417.713 908.572 406.937 900.639 342.202C897.532 316.881 911.945 270.669 930.956 253.526Z" fill="black"/>
</g>
</g>
</g>
</g>
</g>
</g>
</mask>
<g mask="url(#mask1_1_2)">
<path d="M1996.96 0H0.615356V1062H1996.96V0Z" fill="url(#paint1_linear_1_2)"/>
</g>
</g>
<rect y="702" width="1997" height="362" fill="white"/>
<path d="M314 1011H224.227V720.091H317.977C346.197 720.091 370.345 725.915 390.42 737.562C410.496 749.116 425.884 765.735 436.585 787.42C447.286 809.011 452.636 834.864 452.636 864.977C452.636 895.28 447.239 921.369 436.443 943.244C425.648 965.025 409.928 981.786 389.284 993.528C368.64 1005.18 343.545 1011 314 1011ZM259.455 979.75H311.727C335.78 979.75 355.714 975.11 371.528 965.83C387.343 956.549 399.133 943.339 406.898 926.199C414.663 909.059 418.545 888.652 418.545 864.977C418.545 841.492 414.71 821.275 407.04 804.324C399.369 787.278 387.911 774.21 372.665 765.119C357.419 755.934 338.432 751.341 315.705 751.341H259.455V979.75ZM598.659 1015.55C577.636 1015.55 559.502 1010.91 544.256 1001.62C529.104 992.25 517.409 979.182 509.17 962.42C501.027 945.564 496.955 925.962 496.955 903.614C496.955 881.265 501.027 861.568 509.17 844.523C517.409 827.383 528.867 814.03 543.545 804.466C558.318 794.807 575.553 789.977 595.25 789.977C606.614 789.977 617.835 791.871 628.915 795.659C639.994 799.447 650.08 805.602 659.17 814.125C668.261 822.553 675.506 833.727 680.903 847.648C686.301 861.568 689 878.708 689 899.068V913.273H520.818V884.295H654.909C654.909 871.985 652.447 861 647.523 851.341C642.693 841.682 635.78 834.059 626.784 828.472C617.883 822.884 607.371 820.091 595.25 820.091C581.898 820.091 570.345 823.405 560.591 830.034C550.932 836.568 543.498 845.091 538.29 855.602C533.081 866.114 530.477 877.383 530.477 889.409V908.727C530.477 925.205 533.318 939.172 539 950.631C544.777 961.994 552.778 970.659 563.006 976.625C573.233 982.496 585.117 985.432 598.659 985.432C607.466 985.432 615.42 984.201 622.523 981.739C629.72 979.182 635.922 975.394 641.131 970.375C646.339 965.261 650.364 958.917 653.205 951.341L685.591 960.432C682.182 971.417 676.453 981.076 668.403 989.409C660.354 997.648 650.411 1004.09 638.574 1008.73C626.737 1013.27 613.432 1015.55 598.659 1015.55ZM911.763 792.818L831.081 1011H796.99L716.308 792.818H752.672L812.899 966.682H815.172L875.399 792.818H911.763ZM960.555 1011V720.091H995.783V979.75H1131.01V1011H960.555ZM1272.49 1015.55C1251.46 1015.55 1233.33 1010.91 1218.08 1001.62C1202.93 992.25 1191.24 979.182 1183 962.42C1174.85 945.564 1170.78 925.962 1170.78 903.614C1170.78 881.265 1174.85 861.568 1183 844.523C1191.24 827.383 1202.7 814.03 1217.37 804.466C1232.15 794.807 1249.38 789.977 1269.08 789.977C1280.44 789.977 1291.66 791.871 1302.74 795.659C1313.82 799.447 1323.91 805.602 1333 814.125C1342.09 822.553 1349.33 833.727 1354.73 847.648C1360.13 861.568 1362.83 878.708 1362.83 899.068V913.273H1194.65V884.295H1328.74C1328.74 871.985 1326.28 861 1321.35 851.341C1316.52 841.682 1309.61 834.059 1300.61 828.472C1291.71 822.884 1281.2 820.091 1269.08 820.091C1255.73 820.091 1244.17 823.405 1234.42 830.034C1224.76 836.568 1217.33 845.091 1212.12 855.602C1206.91 866.114 1204.31 877.383 1204.31 889.409V908.727C1204.31 925.205 1207.15 939.172 1212.83 950.631C1218.6 961.994 1226.61 970.659 1236.83 976.625C1247.06 982.496 1258.95 985.432 1272.49 985.432C1281.29 985.432 1289.25 984.201 1296.35 981.739C1303.55 979.182 1309.75 975.394 1314.96 970.375C1320.17 965.261 1324.19 958.917 1327.03 951.341L1359.42 960.432C1356.01 971.417 1350.28 981.076 1342.23 989.409C1334.18 997.648 1324.24 1004.09 1312.4 1008.73C1300.56 1013.27 1287.26 1015.55 1272.49 1015.55ZM1447.35 879.75V1011H1413.82V792.818H1446.21V826.909H1449.05C1454.16 815.83 1461.93 806.928 1472.35 800.205C1482.76 793.386 1496.21 789.977 1512.69 789.977C1527.46 789.977 1540.38 793.008 1551.46 799.068C1562.54 805.034 1571.16 814.125 1577.32 826.341C1583.47 838.462 1586.55 853.803 1586.55 872.364V1011H1553.03V874.636C1553.03 857.496 1548.58 844.144 1539.67 834.58C1530.77 824.92 1518.56 820.091 1503.03 820.091C1492.33 820.091 1482.76 822.411 1474.33 827.051C1466 831.691 1459.42 838.462 1454.59 847.364C1449.76 856.265 1447.35 867.061 1447.35 879.75ZM1802.35 841.682L1772.24 850.205C1770.34 845.186 1767.55 840.309 1763.86 835.574C1760.26 830.744 1755.34 826.767 1749.09 823.642C1742.84 820.517 1734.83 818.955 1725.08 818.955C1711.73 818.955 1700.6 822.032 1691.7 828.188C1682.89 834.248 1678.49 841.966 1678.49 851.341C1678.49 859.674 1681.52 866.256 1687.58 871.085C1693.64 875.915 1703.11 879.939 1715.99 883.159L1748.38 891.114C1767.88 895.848 1782.42 903.093 1791.98 912.847C1801.55 922.506 1806.33 934.958 1806.33 950.205C1806.33 962.705 1802.73 973.879 1795.53 983.727C1788.43 993.576 1778.49 1001.34 1765.7 1007.02C1752.92 1012.7 1738.05 1015.55 1721.1 1015.55C1698.85 1015.55 1680.43 1010.72 1665.85 1001.06C1651.26 991.398 1642.03 977.288 1638.15 958.727L1669.97 950.773C1673 962.515 1678.73 971.322 1687.15 977.193C1695.68 983.064 1706.8 986 1720.53 986C1736.16 986 1748.56 982.686 1757.75 976.057C1767.03 969.333 1771.67 961.284 1771.67 951.909C1771.67 944.333 1769.02 937.989 1763.72 932.875C1758.41 927.667 1750.27 923.784 1739.28 921.227L1702.92 912.705C1682.94 907.97 1668.26 900.631 1658.89 890.688C1649.61 880.65 1644.97 868.102 1644.97 853.045C1644.97 840.735 1648.42 829.845 1655.34 820.375C1662.34 810.905 1671.86 803.472 1683.89 798.074C1696.01 792.676 1709.74 789.977 1725.08 789.977C1746.67 789.977 1763.62 794.712 1775.93 804.182C1788.34 813.652 1797.14 826.152 1802.35 841.682Z" fill="url(#paint2_linear_1_2)"/>
</g>
</g>
<defs>
<linearGradient id="paint0_linear_1_2" x1="0.615356" y1="613.838" x2="1995.5" y2="677.587" gradientUnits="userSpaceOnUse">
<stop stop-color="#6EE2F5"/>
<stop offset="1" stop-color="#6454F0"/>
</linearGradient>
<linearGradient id="paint1_linear_1_2" x1="0.615356" y1="613.838" x2="1995.5" y2="677.587" gradientUnits="userSpaceOnUse">
<stop stop-color="#6EE2F5"/>
<stop offset="1" stop-color="#6454F0"/>
</linearGradient>
<linearGradient id="paint2_linear_1_2" x1="189" y1="820.5" x2="1827" y2="820.5" gradientUnits="userSpaceOnUse">
<stop stop-color="#6EE2F5"/>
<stop offset="1" stop-color="#6454F0"/>
</linearGradient>
<clipPath id="clip0_1_2">
<rect width="2000" height="1065" fill="white"/>
</clipPath>
<clipPath id="clip1_1_2">
<rect width="2000" height="1065" fill="white" transform="translate(-1.21216 -1.49841)"/>
</clipPath>
<clipPath id="clip2_1_2">
<rect width="1996.34" height="1062" fill="white" transform="translate(0.615356)"/>
</clipPath>
<clipPath id="clip3_1_2">
<rect width="1996.34" height="1062" fill="white" transform="translate(0.615356)"/>
</clipPath>
<clipPath id="clip4_1_2">
<rect width="653.913" height="653.913" fill="white" transform="translate(671.831)"/>
</clipPath>
<clipPath id="clip5_1_2">
<rect width="197.144" height="339.794" fill="white" transform="translate(900.216 157.06)"/>
</clipPath>
<clipPath id="clip6_1_2">
<rect width="197.144" height="339.794" fill="white" transform="translate(900.216 157.06)"/>
</clipPath>
<clipPath id="clip7_1_2">
<rect width="1996.34" height="1062" fill="white" transform="translate(0.615356)"/>
</clipPath>
<clipPath id="clip8_1_2">
<rect width="1996.34" height="1062" fill="white" transform="translate(0.615356)"/>
</clipPath>
<clipPath id="clip9_1_2">
<rect width="1996.34" height="277.206" fill="white" transform="translate(0.615356 784.797)"/>
</clipPath>
<clipPath id="clip10_1_2">
<rect width="1996.34" height="277.206" fill="white" transform="translate(0.615356 784.797)"/>
</clipPath>
<clipPath id="clip11_1_2">
<rect width="1996.34" height="277.206" fill="white" transform="translate(0.615356 784.797)"/>
</clipPath>
<clipPath id="clip12_1_2">
<rect width="1996.34" height="277.206" fill="white" transform="translate(0.615356 784.797)"/>
</clipPath>
<clipPath id="clip13_1_2">
<rect width="653.913" height="653.913" fill="white" transform="translate(671.831)"/>
</clipPath>
<clipPath id="clip14_1_2">
<rect width="653.913" height="653.913" fill="white" transform="translate(671.831)"/>
</clipPath>
<clipPath id="clip15_1_2">
<rect width="197.144" height="339.794" fill="white" transform="translate(900.216 157.06)"/>
</clipPath>
<clipPath id="clip16_1_2">
<rect width="197.144" height="339.794" fill="white" transform="translate(900.216 157.06)"/>
</clipPath>
<clipPath id="clip17_1_2">
<rect width="1996.34" height="1062" fill="white" transform="translate(0.615356)"/>
</clipPath>
<clipPath id="clip18_1_2">
<rect width="1996.34" height="1062" fill="white" transform="translate(0.615356)"/>
</clipPath>
<clipPath id="clip19_1_2">
<rect width="1996.34" height="277.206" fill="white" transform="translate(0.615356 784.797)"/>
</clipPath>
<clipPath id="clip20_1_2">
<rect width="653.913" height="653.913" fill="white" transform="translate(671.831)"/>
</clipPath>
<clipPath id="clip21_1_2">
<rect width="653.913" height="653.913" fill="white" transform="translate(671.831)"/>
</clipPath>
<clipPath id="clip22_1_2">
<rect width="197.144" height="339.794" fill="white" transform="translate(900.216 157.06)"/>
</clipPath>
<clipPath id="clip23_1_2">
<rect width="197.144" height="339.794" fill="white" transform="translate(900.216 157.06)"/>
</clipPath>
</defs>
</svg>
